<?xml version="1.0" encoding="UTF-8" standalone="no"?>
<svg
   xmlns:dc="http://purl.org/dc/elements/1.1/"
   xmlns:cc="http://creativecommons.org/ns#"
   xmlns:rdf="http://www.w3.org/1999/02/22-rdf-syntax-ns#"
   xmlns:svg="http://www.w3.org/2000/svg"
   xmlns="http://www.w3.org/2000/svg"
   xmlns:sodipodi="http://sodipodi.sourceforge.net/DTD/sodipodi-0.dtd"
   xmlns:inkscape="http://www.inkscape.org/namespaces/inkscape"
   version="1.0"
   width="391"
   height="278"
   id="svg2"
   inkscape:version="0.48.2 r9819"
   sodipodi:docname="qmarks.svg">
  <metadata
     id="metadata17">
    <rdf:RDF>
      <cc:Work
         rdf:about="">
        <dc:format>image/svg+xml</dc:format>
        <dc:type
           rdf:resource="http://purl.org/dc/dcmitype/StillImage" />
      </cc:Work>
    </rdf:RDF>
  </metadata>
  <defs
     id="defs15" />
  <sodipodi:namedview
     pagecolor="#ffffff"
     bordercolor="#666666"
     borderopacity="1"
     objecttolerance="10"
     gridtolerance="10"
     guidetolerance="10"
     inkscape:pageopacity="0"
     inkscape:pageshadow="2"
     inkscape:window-width="1366"
     inkscape:window-height="706"
     id="namedview13"
     showgrid="false"
     inkscape:zoom="0.74680307"
     inkscape:cx="-13.390411"
     inkscape:cy="139"
     inkscape:window-x="-8"
     inkscape:window-y="-8"
     inkscape:window-maximized="1"
     inkscape:current-layer="svg2" />
  <g
     style="font-size:144px;fill:#282828;fill-opacity:0.3882353;font-family:Times New Roman"
     id="text6">
    <path
       d="m 71.773437,17.476562 0,3.445313 c -4.875058,1.781342 -8.695367,4.582121 -11.460937,8.402344 -2.765675,3.820394 -4.148486,7.793046 -4.148438,11.917968 -4.8e-5,0.890698 0.140577,1.546948 0.421875,1.96875 0.187452,0.281322 0.398389,0.421947 0.632813,0.421875 0.234326,7.2e-5 0.585888,-0.16399 1.054687,-0.492187 1.499949,-1.078052 3.398384,-1.617114 5.695313,-1.617188 2.671816,7.4e-5 5.039001,1.089917 7.101562,3.269532 2.062435,2.179755 3.093684,4.769596 3.09375,7.769531 -6.6e-5,3.140684 -1.183658,5.906307 -3.550781,8.296875 C 68.246034,63.250052 65.374943,64.445363 62,64.445312 58.06245,64.445363 54.664016,62.828177 51.804687,59.59375 48.945272,56.359434 47.515585,52.0235 47.515625,46.585937 c -4e-5,-6.32805 1.945271,-11.999919 5.835937,-17.015625 3.890576,-5.015534 10.031195,-9.04678 18.421875,-12.09375 z m -33.820312,0 0,3.445313 c -4.875025,1.781342 -8.695334,4.582121 -11.460938,8.402344 -2.76564,3.820394 -4.148451,7.793046 -4.148437,11.917968 -1.4e-5,0.890698 0.140611,1.546948 0.421875,1.96875 0.187485,0.281322 0.398422,0.421947 0.632812,0.421875 0.23436,7.2e-5 0.585922,-0.16399 1.054688,-0.492187 1.499982,-1.078052 3.398418,-1.617114 5.695312,-1.617188 2.671851,7.4e-5 5.039036,1.089917 7.101563,3.269532 2.062469,2.179755 3.093718,4.769596 3.09375,7.769531 -3.2e-5,3.140684 -1.183625,5.906307 -3.550781,8.296875 -2.367214,2.390677 -5.238305,3.585988 -8.613282,3.585937 -3.937516,5.1e-5 -7.33595,-1.617135 -10.195312,-4.851562 -2.859382,-3.234316 -4.289068,-7.57025 -4.289062,-13.007813 -6e-6,-6.32805 1.945304,-11.999919 5.835937,-17.015625 3.89061,-5.015534 10.031228,-9.04678 18.421875,-12.09375 z"
       style="font-weight:bold;fill:#282828;-inkscape-font-specification:'Times New Roman, Bold';fill-opacity:0.3882353"
       id="path3768" />
  </g>
</svg>
